<svg viewBox="0 0 24 24" xmlns="http://www.w3.org/2000/svg"><path d="M20 4c-3.609 0-7.363-2.772-7.4-2.8a1 1 0 0 0-1.2 0C11.363 1.228 7.609 4 4 4a1 1 0 0 0-1 1c0 .6.1 14.73 8.649 17.937a1.009 1.009 0 0 0 .7 0C20.9 19.73 21 5.6 21 5a1 1 0 0 0-1-1Zm-8 16.921C6.2 18.4 5.205 8.973 5.035 5.943A16.968 16.968 0 0 0 12 3.216a16.968 16.968 0 0 0 6.965 2.727C18.8 8.973 17.8 18.4 12 20.921Z" fill="#ffda73" class="fill-000000"></path><path d="M8 11a4 4 0 1 0 4-4 4 4 0 0 0-4 4Zm6 0a2 2 0 1 1-2-2 2 2 0 0 1 2 2Z" fill="#ffda73" class="fill-000000"></path></svg>