<svg viewBox="0 0 32 32" xmlns="http://www.w3.org/2000/svg"><g data-name="Layer 2"><path d="M12 17a5 5 0 0 1 5-5 1 1 0 0 0 0-2 5 5 0 0 1-5-5 1 1 0 0 0-2 0 5 5 0 0 1-5 5 1 1 0 0 0 0 2 5 5 0 0 1 5 5 1 1 0 0 0 2 0Zm-3.4-6A7.07 7.07 0 0 0 11 8.6a7.07 7.07 0 0 0 2.4 2.4 7.07 7.07 0 0 0-2.4 2.4A7.07 7.07 0 0 0 8.6 11ZM18 23a2 2 0 0 1-2-2 1 1 0 0 0-2 0 2 2 0 0 1-2 2 1 1 0 0 0 0 2 2 2 0 0 1 2 2 1 1 0 0 0 2 0 2 2 0 0 1 2-2 1 1 0 0 0 0-2Zm-3 1.36a3.06 3.06 0 0 0-.36-.36 3.06 3.06 0 0 0 .36-.36 3.06 3.06 0 0 0 .36.36 3.06 3.06 0 0 0-.36.36ZM27 16a4 4 0 0 1-4-4 1 1 0 0 0-2 0 4 4 0 0 1-4 4 1 1 0 0 0 0 2 4 4 0 0 1 4 4 1 1 0 0 0 2 0 4 4 0 0 1 4-4 1 1 0 0 0 0-2Zm-5 2.69A5.91 5.91 0 0 0 20.31 17 5.91 5.91 0 0 0 22 15.31 5.91 5.91 0 0 0 23.69 17 5.91 5.91 0 0 0 22 18.69Z" fill="#ffda73" class="fill-000000"></path></g></svg>